<?xml version="1.0" encoding="UTF-8" standalone="no"?>
<svg
   height="24"
   viewBox="0 -960 960 960"
   width="24"
   fill="#e8eaed"
   version="1.1"
   id="svg4"
   sodipodi:docname="edit_icon.svg"
   inkscape:export-filename="edit_icon_dark.svg"
   inkscape:export-xdpi="96"
   inkscape:export-ydpi="96"
   xmlns:inkscape="http://www.inkscape.org/namespaces/inkscape"
   xmlns:sodipodi="http://sodipodi.sourceforge.net/DTD/sodipodi-0.dtd"
   xmlns="http://www.w3.org/2000/svg"
   xmlns:svg="http://www.w3.org/2000/svg">
  <defs
     id="defs8" />
  <sodipodi:namedview
     id="namedview6"
     pagecolor="#ffffff"
     bordercolor="#000000"
     borderopacity="0.25"
     inkscape:showpageshadow="2"
     inkscape:pageopacity="0.0"
     inkscape:pagecheckerboard="0"
     inkscape:deskcolor="#d1d1d1"
     showgrid="false" />
  <path
     d="m 200,-200 h 57 l 391,-391 -57,-57 -391,391 z m -80,80 v -170 l 528,-527 q 12,-11 26.5,-17 14.5,-6 30.5,-6 16,0 31,6 15,6 26,18 l 55,56 q 12,11 17.5,26 5.5,15 5.5,30 0,16 -5.5,30.5 Q 829,-659 817,-647 l -527,527 z m 640,-584 -56,-56 z m -141,85 -28,-29 57,57 z"
     id="path2"
     style="fill:#ffffff;fill-opacity:1" />
</svg>
