<?xml version="1.0" encoding="UTF-8" standalone="no"?>
<!-- Created with Inkscape (http://www.inkscape.org/) -->

<svg
   width="124.2657mm"
   height="141.47118mm"
   viewBox="0 0 124.2657 141.47118"
   version="1.1"
   id="svg5"
   sodipodi:docname="icons_working.svg"
   inkscape:version="1.2 (dc2aedaf03, 2022-05-15)"
   xmlns:inkscape="http://www.inkscape.org/namespaces/inkscape"
   xmlns:sodipodi="http://sodipodi.sourceforge.net/DTD/sodipodi-0.dtd"
   xmlns="http://www.w3.org/2000/svg"
   xmlns:svg="http://www.w3.org/2000/svg">
  <sodipodi:namedview
     id="namedview7"
     pagecolor="#ffffff"
     bordercolor="#000000"
     borderopacity="0.25"
     inkscape:showpageshadow="2"
     inkscape:pageopacity="0.0"
     inkscape:pagecheckerboard="0"
     inkscape:deskcolor="#d1d1d1"
     inkscape:document-units="mm"
     showgrid="false"
     inkscape:zoom="1"
     inkscape:cx="265.5"
     inkscape:cy="283.5"
     inkscape:window-width="1920"
     inkscape:window-height="1001"
     inkscape:window-x="-9"
     inkscape:window-y="-9"
     inkscape:window-maximized="1"
     inkscape:current-layer="layer1" />
  <defs
     id="defs2" />
  <g
     inkscape:label="Layer 1"
     inkscape:groupmode="layer"
     id="layer1"
     transform="translate(-23.314266,-14.703362)">
    <path
       sodipodi:type="star"
       style="display:inline;opacity:1;fill:#ffffff;fill-opacity:1;stroke:none;stroke-width:0.283084;stroke-linecap:square"
       id="path641"
       inkscape:flatsided="true"
       sodipodi:sides="6"
       sodipodi:cx="25.131613"
       sodipodi:cy="20.901541"
       sodipodi:r1="49.522369"
       sodipodi:r2="42.88763"
       sodipodi:arg1="0.52359878"
       sodipodi:arg2="1.0471976"
       inkscape:rounded="0"
       inkscape:randomized="0"
       d="m 68.019243,45.662726 -42.88763,24.761184 -42.88763,-24.761185 0,-49.5223691 42.88763,-24.7611849 42.88763,24.7611853 z"
       transform="matrix(1.4021031,0,0,1.4018354,50.210061,56.146655)" />
    <path
       id="path9422"
       style="opacity:0.99;fill:none;fill-opacity:1;stroke:#000000;stroke-width:4;stroke-linejoin:round;stroke-opacity:1"
       d="m 85.446981,16.703373 c -0.851925,0.0063 -1.685129,0.250603 -2.405538,0.705384 L 27.72704,49.347909 c -1.479853,0.79223 -2.406206,2.332052 -2.412773,4.010608 0.0059,0.05075 0.0052,64.115753 0,64.160943 0.007,1.68133 0.936696,3.22302 2.420524,4.01371 l 55.313403,31.94116 c 0.719011,0.45176 1.549684,0.69424 2.39882,0.70022 0.848634,-0.006 1.678912,-0.24764 2.397786,-0.69867 l 55.3193,-31.93106 c 1.48578,-0.79395 2.4142,-2.341 2.41587,-4.0256 -0.005,-0.0452 -0.006,-64.109968 0,-64.16072 -7e-5,-1.736753 -0.98469,-3.323329 -2.54093,-4.094324 L 87.85118,17.407172 c -0.720274,-0.45405 -1.553082,-0.697825 -2.404504,-0.703833 z"
       sodipodi:nodetypes="cccccccccccccccc" />
    <path
       id="path1409"
       style="display:inline;opacity:0.99;fill:#000000;fill-opacity:1;stroke:none;stroke-width:0.396875;stroke-linecap:square"
       d="m 145.58026,50.735921 -60.133279,34.71106 v 69.422639 l 60.133279,-34.71158 z m -16.7783,22.220349 a 5.7747169,9.2864075 0 0 1 5.77432,9.286255 5.7747169,9.2864075 0 0 1 -5.77432,9.286255 5.7747169,9.2864075 0 0 1 -5.77484,-9.286255 5.7747169,9.2864075 0 0 1 5.77484,-9.286255 z m -22.66115,12.490711 a 5.7747169,9.2864075 0 0 1 5.77484,9.286771 5.7747169,9.2864075 0 0 1 -5.77484,9.286258 5.7747169,9.2864075 0 0 1 -5.77433,-9.286258 5.7747169,9.2864075 0 0 1 5.77433,-9.286771 z m 22.66115,15.080219 a 5.7747169,9.2864075 0 0 1 5.77432,9.28625 5.7747169,9.2864075 0 0 1 -5.77484,9.28677 5.7747169,9.2864075 0 0 1 -5.77432,-9.28677 5.7747169,9.2864075 0 0 1 5.77484,-9.28625 z m -22.66115,12.49071 a 5.7747169,9.2864075 0 0 1 5.77484,9.28677 5.7747169,9.2864075 0 0 1 -5.77484,9.28625 5.7747169,9.2864075 0 0 1 -5.77433,-9.28625 5.7747169,9.2864075 0 0 1 5.77433,-9.28677 z" />
    <ellipse
       style="display:inline;opacity:0.99;fill:#000000;fill-opacity:1;stroke:none;stroke-width:0.396875;stroke-linecap:square"
       id="ellipse3845"
       cx="-85.447174"
       cy="-50.736069"
       rx="9.2864075"
       ry="5.7747169"
       transform="scale(-1)" />
    <ellipse
       style="display:inline;opacity:0.99;fill:#000000;fill-opacity:1;stroke:none;stroke-width:0.396875;stroke-linecap:square"
       id="ellipse3849"
       cx="-83.083405"
       cy="-41.930485"
       rx="9.2864075"
       ry="5.7747169"
       transform="matrix(0,-1,-1,0,0,0)" />
    <ellipse
       style="display:inline;opacity:0.99;fill:#000000;fill-opacity:1;stroke:none;stroke-width:0.396875;stroke-linecap:square"
       id="ellipse3851"
       cx="-123.14532"
       cy="-64.591164"
       rx="9.2864075"
       ry="5.7747169"
       transform="matrix(0,-1,-1,0,0,0)" />
  </g>
</svg>
