<?xml version="1.0" encoding="UTF-8" standalone="no"?>
<!-- Created with Inkscape (http://www.inkscape.org/) -->

<svg
   width="170.89435mm"
   height="170.89435mm"
   viewBox="0 0 170.89435 170.89435"
   version="1.1"
   id="svg5"
   sodipodi:docname="icons_working.svg"
   inkscape:version="1.2 (dc2aedaf03, 2022-05-15)"
   inkscape:export-filename="short-form-rules\public\newFavicon.svg"
   inkscape:export-xdpi="96"
   inkscape:export-ydpi="96"
   xmlns:inkscape="http://www.inkscape.org/namespaces/inkscape"
   xmlns:sodipodi="http://sodipodi.sourceforge.net/DTD/sodipodi-0.dtd"
   xmlns="http://www.w3.org/2000/svg"
   xmlns:svg="http://www.w3.org/2000/svg">
  <sodipodi:namedview
     id="namedview7"
     pagecolor="#ffffff"
     bordercolor="#000000"
     borderopacity="0.25"
     inkscape:showpageshadow="2"
     inkscape:pageopacity="0.0"
     inkscape:pagecheckerboard="0"
     inkscape:deskcolor="#d1d1d1"
     inkscape:document-units="mm"
     showgrid="false"
     inkscape:zoom="1"
     inkscape:cx="265.5"
     inkscape:cy="283.5"
     inkscape:window-width="1920"
     inkscape:window-height="1001"
     inkscape:window-x="-9"
     inkscape:window-y="-9"
     inkscape:window-maximized="1"
     inkscape:current-layer="layer1" />
  <defs
     id="defs2" />
  <g
     inkscape:groupmode="layer"
     id="layer2"
     inkscape:label="Layer 2"
     style="display:inline">
    <path
       id="rect10341"
       style="color:#000000;fill:#ffffff;fill-opacity:1;stroke-linejoin:round;-inkscape-stroke:none"
       d="m 25.318351,29.216821 c -2.208857,3.56e-4 -3.9994,1.790899 -3.999756,3.999756 V 137.6779 c 3.53e-4,2.20886 1.790897,3.9994 3.999756,3.99976 H 145.57613 c 2.20906,-7e-5 3.99992,-1.7907 4.00027,-3.99976 V 33.216577 c -3.6e-4,-2.209058 -1.79121,-3.999684 -4.00027,-3.999756 z m 3.999756,8.000029 H 67.957092 V 64.036918 H 29.318107 Z m 46.639014,0 H 141.57637 V 64.036918 H 75.957121 Z M 29.318107,72.036947 H 67.957092 V 98.857532 H 29.318107 Z m 46.639014,0 H 141.57637 V 98.857532 H 75.957121 Z M 29.318107,106.85756 h 38.638985 v 26.82007 H 29.318107 Z m 46.639014,0 h 65.619249 v 26.82007 H 75.957121 Z"
       sodipodi:nodetypes="ccccccccccccccccccccccccccccccccccccccc" />
  </g>
</svg>
